<?xml version="1.0" encoding="utf-8"?>
<!-- Generator: Adobe Illustrator 15.1.0, SVG Export Plug-In . SVG Version: 6.00 Build 0)  -->
<!DOCTYPE svg PUBLIC "-//W3C//DTD SVG 1.1//EN" "http://www.w3.org/Graphics/SVG/1.1/DTD/svg11.dtd">
<svg version="1.1" id="Layer_1" xmlns="http://www.w3.org/2000/svg" xmlns:xlink="http://www.w3.org/1999/xlink" x="0px" y="0px"
	 width="238px" height="288px" viewBox="0 0 238 288" enable-background="new 0 0 238 288" xml:space="preserve">
<g>
	<defs>
		<rect id="SVGID_1_" width="238" height="288"/>
	</defs>
	<clipPath id="SVGID_2_">
		<use xlink:href="#SVGID_1_"  overflow="visible"/>
	</clipPath>
	<path clip-path="url(#SVGID_2_)" d="M123.821,108.06c-26.932,45.021-105.507,54.35-67.507,120.869
		c28.929-22.878,63.768-58.15,64.478-97.44c5.007,48.993-48.22,98.75-79.902,127.658c16.498,20.711,15.211-16.557,29.61-16.579
		c12.881-0.019,26.274-2.229,37.946-7.843C146.261,216.527,144.157,139.075,123.821,108.06"/>
	<path clip-path="url(#SVGID_2_)" d="M134.732,27.704c-45.214-6.491-87.279,25.011-93.77,70.224
		c-3.081,21.454,2.398,42.197,13.834,58.768c3.17-3.119,6.585-6.087,10.134-8.954c-8.965-13.658-13.188-30.504-10.689-47.908
		c5.44-37.892,40.692-64.291,78.585-58.851c37.891,5.441,64.291,40.693,58.851,78.584c-3.674,25.586-20.941,45.93-43.434,54.772
		c-0.235,4.983-0.715,9.908-1.459,14.689c29.894-9.029,53.449-34.66,58.172-67.553C211.448,76.262,179.945,34.195,134.732,27.704"/>
	<path clip-path="url(#SVGID_2_)" d="M181.275,118.074c4.616-32.156-17.789-62.073-49.943-66.689
		c-32.156-4.618-62.072,17.788-66.688,49.943c-2.078,14.474,1.332,28.485,8.629,39.949c1.898-1.424,3.803-2.834,5.701-4.236
		c1.694-1.252,3.394-2.508,5.09-3.776c-5.279-8.697-7.697-19.199-6.141-30.031c3.565-24.833,26.669-42.137,51.503-38.57
		c24.834,3.564,42.136,26.67,38.569,51.503c-1.966,13.696-9.883,25.093-20.749,31.97c0.596,4.844,0.971,9.767,1.109,14.696
		C165.497,154.608,178.376,138.265,181.275,118.074"/>
	<path clip-path="url(#SVGID_2_)" d="M156.489,114.515c2.654-18.488-10.229-35.688-28.716-38.342
		c-18.488-2.655-35.689,10.226-38.344,28.714c-1.09,7.592,0.444,14.965,3.907,21.205c3.67-2.97,7.202-6.037,10.451-9.262
		c-1.16-3.103-1.582-6.531-1.079-10.037c1.603-11.166,11.992-18.945,23.159-17.341c11.166,1.602,18.943,11.992,17.341,23.157
		c-0.375,2.608-1.234,5.029-2.466,7.192c1.739,4.872,3.197,10.079,4.359,15.502C151.068,130.148,155.283,122.914,156.489,114.515"/>
</g>
</svg>
