<?xml version="1.0" encoding="utf-8"?>
<svg version="1.1" xmlns="http://www.w3.org/2000/svg" xmlns:xlink="http://www.w3.org/1999/xlink" x="0px" y="0px" width="250px" height="250px">
<style>
path { fill:#2FB04A; stroke:#2FB04A; stroke-width:0px; }
</style>
	<path d="M129.8,86.1c-26.9,45-105.5,54.3-67.5,120.9c28.9-22.9,63.8-58.2,64.5-97.4c5,49-48.2,98.8-79.9,127.7
		c16.5,20.7,15.2-16.6,29.6-16.6c12.9,0,26.3-2.2,37.9-7.8C152.3,194.5,150.2,117.1,129.8,86.1z"/>
	<path d="M140.7,5.7C95.5-0.8,53.5,30.7,47,75.9c-3.1,21.5,2.4,42.2,13.8,58.8c3.2-3.1,6.6-6.1,10.1-9c-9-13.7-13.2-30.5-10.7-47.9
		c5.4-37.9,40.7-64.3,78.6-58.9c37.9,5.4,64.3,40.7,58.9,78.6c-3.7,25.6-20.9,45.9-43.4,54.8c-0.2,5-0.7,9.9-1.5,14.7
		c29.9-9,53.4-34.7,58.2-67.6C217.4,54.3,185.9,12.2,140.7,5.7z"/>
	<path d="M187.3,96.1c4.6-32.2-17.8-62.1-49.9-66.7c-32.2-4.6-62.1,17.8-66.7,49.9c-2.1,14.5,1.3,28.5,8.6,39.9
		c1.9-1.4,3.8-2.8,5.7-4.2c1.7-1.3,3.4-2.5,5.1-3.8c-5.3-8.7-7.7-19.2-6.1-30c3.6-24.8,26.7-42.1,51.5-38.6
		c24.8,3.6,42.1,26.7,38.6,51.5c-2,13.7-9.9,25.1-20.7,32c0.6,4.8,1,9.8,1.1,14.7C171.5,132.6,184.4,116.3,187.3,96.1z"/>
	<path d="M162.5,92.5c2.7-18.5-10.2-35.7-28.7-38.3c-18.5-2.7-35.7,10.2-38.3,28.7c-1.1,7.6,0.4,15,3.9,21.2c3.7-3,7.2-6,10.5-9.3
		c-1.2-3.1-1.6-6.5-1.1-10c1.6-11.2,12-18.9,23.2-17.3c11.2,1.6,18.9,12,17.3,23.2c-0.4,2.6-1.2,5-2.5,7.2
		c1.7,4.9,3.2,10.1,4.4,15.5C157.1,108.1,161.3,100.9,162.5,92.5z"/>
</svg>
